/* XPM */
static char *_aa9cd01f9404f81e02ec1cc3dbf7df6dGgFc9V7JLy6fyN0[] = {
/* columns rows colors chars-per-pixel */
"32 32 215 2 ",
"   c #FFB851",
".  c #FCAF50",
"X  c #ED744D",
"o  c #E34E4B",
"O  c #E5554C",
"+  c #F38A4E",
"@  c #FDB151",
"#  c #EA684D",
"$  c #E5574C",
"%  c #F48E4F",
"&  c #ED754D",
"*  c #E24B4B",
"=  c #E24C4B",
"-  c #F8A050",
";  c #EA6A4D",
":  c #F89D50",
">  c #E65A4C",
",  c #F1824E",
"<  c #F2864E",
"1  c #E8604C",
"2  c #FEB451",
"3  c #E34F4B",
"4  c #F38C4F",
"5  c #F4904F",
"6  c #E3514B",
"7  c #FDAF50",
"8  c #F48D4F",
"9  c #E7604C",
"0  c #FCAC50",
"q  c #FEB551",
"w  c #BD764C",
"e  c #9B4849",
"r  c #914749",
"t  c #E4994F",
"y  c #FEB651",
"u  c #A3614B",
"i  c #964B49",
"p  c #E79C4F",
"a  c #9D7D4C",
"s  c #3E4347",
"d  c #DEA44F",
"f  c #76654A",
"g  c #474847",
"h  c #E1A64F",
"j  c #FFCD42",
"k  c #FFD23F",
"l  c #EEC83E",
"z  c #DDBE3D",
"x  c #F9CF3E",
"c  c #E7C43E",
"v  c #DEBF3D",
"b  c #FACF3E",
"n  c #FFC14B",
"m  c #FFD83B",
"M  c #978742",
"N  c #615D45",
"B  c #CCB13E",
"V  c #E5C43D",
"C  c #6E6844",
"Z  c #897C43",
"A  c #F3CF3C",
"S  c #A49141",
"D  c #625E45",
"F  c #B49D40",
"G  c #F4CF3C",
"H  c #676345",
"J  c #FAD43B",
"K  c #BFA63F",
"L  c #AF9A40",
"P  c #EFCC3C",
"I  c #807643",
"U  c #6B6544",
"Y  c #EAC73C",
"T  c #FFCB44",
"R  c #F9D43B",
"E  c #635F45",
"W  c #444747",
"Q  c #F0CC3C",
"!  c #C4AA3F",
"~  c #3F4347",
"^  c #938442",
"/  c #FDD73B",
"(  c #6A6444",
")  c #494B46",
"_  c #C7AC3E",
"`  c #CFB33E",
"'  c #736B44",
"]  c #FED73B",
"[  c #7D7443",
"{  c #D2B53E",
"}  c #D7B93E",
"|  c #474947",
" . c #5F5C45",
".. c #F6D13C",
"X. c #4B4D46",
"o. c #666145",
"O. c #988841",
"+. c #F9D33C",
"@. c #605D45",
"#. c #F1CD3C",
"$. c #A39041",
"%. c #B29C40",
"&. c #F0CD3C",
"*. c #575546",
"=. c #4E4F46",
"-. c #8F8142",
";. c #C4AB3F",
":. c #404347",
">. c #928342",
",. c #E1C13D",
"<. c #D1B43E",
"1. c #857A43",
"2. c #776E44",
"3. c #E0C03D",
"4. c #D8BA3D",
"5. c #434647",
"6. c #797044",
"7. c #837843",
"8. c #414547",
"9. c #CDB13E",
"0. c #9D8C41",
"q. c #BAA23F",
"w. c #F8D23B",
"e. c #484A47",
"r. c #5D5A45",
"t. c #AE9940",
"y. c #5A5845",
"u. c #FCD63B",
"i. c #B49E40",
"p. c #A18F41",
"a. c #5B5945",
"s. c #515146",
"d. c #EAC83C",
"f. c #F2CD3C",
"g. c #716A44",
"h. c #4D4D46",
"j. c #DFBF3D",
"k. c #C2A93F",
"l. c #7F7543",
"z. c #625F45",
"x. c #DABB3D",
"c. c #DCBD3D",
"v. c #454747",
"b. c #746C44",
"n. c #FCD53B",
"m. c #887C42",
"M. c #E7C53D",
"N. c #DBBC3D",
"B. c #797043",
"V. c #F5D03C",
"C. c #857943",
"Z. c #404447",
"A. c #AB9740",
"S. c #EBC83C",
"D. c #4D4E46",
"F. c #FDD63B",
"G. c #A59241",
"H. c #AB9741",
"J. c #5C5945",
"K. c #4F5046",
"L. c #E9C73C",
"P. c #A49241",
"I. c #948542",
"U. c #B29D40",
"Y. c #585646",
"T. c #525146",
"R. c #8B7E43",
"E. c #FBD53B",
"W. c #C9AE3F",
"Q. c #6C6644",
"!. c #706944",
"~. c #C0A73F",
"^. c #FFD63C",
"/. c #D4B73E",
"(. c #AD9940",
"). c #E3C23D",
"_. c #BBA33F",
"`. c #F9D33B",
"'. c #D9BB3D",
"]. c #B8A140",
"[. c #B39D40",
"{. c #DEBE3D",
"}. c #CEB23E",
"|. c #B69F40",
" X c #FFC846",
".X c #FFBD4E",
"XX c #FFBF4C",
"oX c #B39248",
"OX c #6A6545",
"+X c #E6B04B",
"@X c #957F47",
"#X c #E8B14B",
"$X c #FFB950",
"%X c #D6A255",
"&X c #867254",
"*X c #484D51",
"=X c #B18D56",
"-X c #EBAD53",
";X c #FCB751",
":X c #D09F56",
">X c #6D6353",
",X c #4E5051",
"<X c #B48E56",
"1X c #ECAD53",
"2X c #CB9C57",
"3X c #5A5F63",
"4X c #646462",
"5X c #F6B352",
"6X c #BA9358",
"7X c #797060",
"8X c #DCA555",
"9X c #BD9458",
"0X c #F5B252",
"qX c #DAA455",
"wX c #C09658",
/* pixels */
"                                                                ",
"                                                                ",
"    . X o O +                                   @ # o $ %       ",
"    & * * * = -                                 ; * * * o :     ",
"    > * * * * ,                               @ * * * * * <     ",
"    1 * * * * +                               2 3 * * * * 4     ",
"    5 6 * * > 7                                 8 = * * 9 0     ",
"    q w e r t                                   y u e i p       ",
"      a s s d                                     f s g h       ",
"  j k l z z x k k k k k k k k k k k k k k k k k k c z v b k n   ",
"  m m m M N B m V C Z A m S D F m G D H J m K N L m P I U Y T   ",
"  m m R E W Q m ! ~ ^ / m ( ) _ m ` ~ ' m ] [ ~ { m } |  ...T   ",
"  m m V X.o.m m O.~ K m +.W @.#.m $.~ %.m &.*.=./ m L ~ -.m T   ",
"  m m ;.:.>.m m U ) ,.m <.~ 1.m m 2.~ 3.m 4.5.6.m m 7.8.9.m T   ",
"  m m 0.~ q.m w.e.r...m $.~ t.m A y.X.u.m i.~ p.m m a.s.d.m T   ",
"  m f.g.h.j.m k.~ l.m m z.~ x.m c.v.b.m n.m.:.9.m M.~ ( / m T   ",
"  m N.| B.V.m C.Z.A.m S.~ D.F.m G.~ H.m M.J.K.L.m P.~ I.m m T   ",
"  m U.~ G.m m Y.T.} m K ~ R.m E.U 8.L.m W.Z.Q.n.m !.| ~.m m T   ",
"  ^./.(.).m ] L _.`.m '.(.z m R ].[.m m {.(.}.m m ].|.P m m  X  ",
"  .XXXoXOXOX+XXXXXXXXXXXXXXXXXXXXXXXXXXXXXXXXXXXXX@XOX!.#XXX$X  ",
"      a s s d                                     f s g h       ",
"      a s s d                                     f s g h       ",
"      a s s d                                     f s g h       ",
"      a s s d                                     f s g h       ",
"      a s s d                                     f s g h       ",
"      a s s d                                     f s g h       ",
"      a s s d                                     f s g h       ",
"    %X&X*X*X=X-X                              ;X:X>X*X,X<X1X    ",
"  2X3X3X3X3X3X4X5X                            6X3X3X3X3X3X7X    ",
"  8X9X9X9X9X9X9X0X                            qX9X9X9X9X9XwX    ",
"                                                                ",
"                                                                "
};
