/* XPM */
static char *_b4c8139af39442fdb6983b20d6a1d8bMHGDAJPXbFDrzA3W[] = {
/* columns rows colors chars-per-pixel */
"32 32 14 1 ",
"  c #FFB851",
". c #FFF900",
"X c #FFD42E",
"o c #FFBC4C",
"O c #FFE519",
"+ c #FFCC38",
"@ c #FFF505",
"# c #FFDC24",
"$ c #FFC442",
"% c #FFED0F",
"& c #FFDD23",
"* c #FFD52D",
"= c #FFE914",
"- c #FFC83D",
/* pixels */
"                                ",
"                                ",
"                                ",
"          ..                    ",
"          ..Xo                  ",
"          ....O+                ",
"          ......@#$             ",
"          .........%Xo          ",
"          ............O+        ",
"          ..............@#$     ",
"          ..............@&$     ",
"          ............O+        ",
"          .........%*o          ",
"          ......@&$             ",
"          ....O+                ",
"          ..*o                  ",
"          ..                    ",
"          ..                    ",
"          ..                    ",
"          ..                    ",
"          ..                    ",
"          ..                    ",
"          ..                    ",
"          ..                    ",
"          ..                    ",
"          ..                    ",
"          ..                    ",
"          ..                    ",
"          ..                    ",
"        ==..==                  ",
"        ......                  ",
"        ------                  "
};
