/* XPM */
static char *result[] = {
/* columns rows colors chars-per-pixel */
"32 32 14 1 ",
"  c black",
". c gray4",
"X c #191919",
"o c gray15",
"O c gray20",
"+ c #483300",
"@ c #434343",
"# c gray27",
"$ c gray32",
"% c #6D6D6D",
"& c #C48B00",
"* c #FFE400",
"= c #FFF8BC",
"- c white",
/* pixels */
"@@@@@@@@@@@@@@@@X%@@@@@@@@@@@@@@",
"@@@@@@@@@@@@@@@@X%@@@@@@@@@@@@@@",
"#@@@@@@@@@@@@@@@.%@@@@@@@@@@@@@@",
"@@@@@@@@@@@@@@@OXO@@@@@@@@@@@@@@",
"X....X.XXXXXXXXXXXXXXXXXXXXX....",
"%%%%%%%%%%%%%%%%%%%%%%%OXO%%%%%%",
"$$$$$$$$$$$$$$$$$$$$$$$$X%$$$$$$",
"$$$$$$$$$$$$$$$$$$$$$$$$o%$$$$$$",
"$$$$$$$$$$$$$$$$$$$$$$$$X%$$$$$$",
"$$        $$$$$$$$$$$$$OoO$$$$$$",
"X -======= XXXXXXXXXXXXXoXXXXXXX",
"% =******* %%%%%%%%%%%%%%%%%%%%%",
"@ =******* @@@@@@@@@@@@@@@@@@@@@",
"@ &&&&&&&&                    @@",
"@ &&&&&&&&===================- @",
"@ &&&++&&&******************** @",
"@ &&&++&&&&&&&&&&&&&&&&&&&&&&& @",
"X &&&++&&&&&&&&&&&&&&&&&&&&&&& X",
"% &&&++&&&&&&&&&&&&&&&&&&&&&&& %",
"$ &&&**&&&&&&&&&&&&&&&&&&&&&&& $",
"$ &&&&&&&&              ++++  $$",
"$ &&&&&&&& $$$$$$$$$$$$ &&&& $$$",
"$ &&&&&&&& $$$$$$$$$$$$ &&&& $$$",
"XX        XXXXXXXXXXXXX &&&& XXX",
"%%%%%OXO%%%%%%%%%%%%%%% &&&& %%%",
"$$$$$$X%$$$$$$$$$$$$$$$$    $$$$",
"$$$$$$X%$$$$$$$$$$$$$$$$$$$$$$$$",
"$$$$$$X%$$$$$$$$$$$$$$$$$$$$$$$$",
"$$$$$OXO$$$$$$$$$$$$$$$$$$$$$$$$",
"XXXXXXXXXXXXXXXXXXXXXXXXXXXXXXXX",
"%%%%%%%%%%%%%%%OXO%%%%%%%%%%%%%%",
"@@@@@@@@@@@@@@@@X%@@@@@@@@@@@@@@"
};
