/* XPM */
static char *_f8d50f37a1c4e61ea9ab742a706aea9QMI5HPZaOU1fwx3s[] = {
/* columns rows colors chars-per-pixel */
"32 32 10 1 ",
"  c black",
". c #909090",
"X c gray75",
"o c #C0C0C0",
"O c white",
"+ c gray25",
"@ c gray19",
"# c gray50",
"$ c #202020",
"% c #3F3F3F",
/* pixels */
"                                ",
"                                ",
"        .XXXXXXXXXXXXXXXX.      ",
"        oOOOOOOOOOOOOOOOOo      ",
"        oOOOOOOOOOOOOOOOOo      ",
"        oOOO+++++++++++++@      ",
"        oOOO                    ",
"        oOOO                    ",
"        oOOO                    ",
"        oOOO                    ",
"        oOOO                    ",
"        oOOO                    ",
"        oOOO                    ",
"        oOOO#############$      ",
"        oOOOOOOOOOOOOOOOO+      ",
"        oOOOOOOOOOOOOOOOO+      ",
"        oOOOooooooooooooo@      ",
"        oOOO                    ",
"        oOOO                    ",
"        oOOO                    ",
"        oOOO                    ",
"        oOOO                    ",
"        oOOO                    ",
"        oOOO                    ",
"        oOOO                    ",
"        oOOO                    ",
"        oOOO%%%%%%%%%%%%%%      ",
"        oOOOOOOOOOOOOOOOOO      ",
"        oOOOOOOOOOOOOOOOOO      ",
"        oOOOOOOOOOOOOOOOOO      ",
"                                ",
"                                "
};
