/* XPM */
static char *c9202fb18162467cc865a280bb0d29d1VZti435k8OnEVjfl[] = {
/* columns rows colors chars-per-pixel */
"32 32 19 1 ",
"  c #FFB851",
". c red",
"X c #FF682E",
"o c #FFAC4C",
"O c #FF3A19",
"+ c #FF7F38",
"@ c #FF0C05",
"# c #FF5124",
"$ c #FF9542",
"% c #FF230F",
"& c #FF0B05",
"* c #FF5023",
"= c #FF3919",
"- c #FF7E38",
"; c #FF220F",
": c #FF672D",
"> c #FF2D14",
", c #FF2E14",
"< c #FF8A3D",
/* pixels */
"                                ",
"                                ",
"                                ",
"          ..                    ",
"          ..Xo                  ",
"          ....O+                ",
"          ......@#$             ",
"          .........%Xo          ",
"          ............O+        ",
"          ..............@#$     ",
"          ..............&*$     ",
"          ............=-        ",
"          .........;:o          ",
"          ......&*$             ",
"          ....=-                ",
"          ..:o                  ",
"          ..                    ",
"          ..                    ",
"          ..                    ",
"          ..                    ",
"          ..                    ",
"          ..                    ",
"          ..                    ",
"          ..                    ",
"          ..                    ",
"          ..                    ",
"          ..                    ",
"          ..                    ",
"          ..                    ",
"        >,..,,                  ",
"        ......                  ",
"        <<<<<<                  "
};
