/* XPM */
static char *_81d5313ecf341c198bb4267251b5789TV55grJZsJYayLxy[] = {
/* columns rows colors chars-per-pixel */
"32 32 8 1 ",
"  c None",
". c #003282",
"X c #003382",
"o c #003482",
"O c #154287",
"+ c #164288",
"@ c #164388",
"# c #264E8C",
/* pixels */
"                                ",
"                                ",
"                                ",
"                                ",
"                                ",
"                                ",
"                                ",
"                                ",
"                                ",
"                                ",
"                                ",
"                                ",
"                                ",
"             #@@@@#             ",
"             O....O             ",
"             @.oo.@             ",
"             @.oo.@             ",
"             O....O             ",
"             #@@@@#             ",
"                                ",
"                                ",
"                                ",
"                                ",
"                                ",
"                                ",
"                                ",
"                                ",
"                                ",
"                                ",
"                                ",
"                                ",
"                                "
};
