/* XPM */
static char *result[] = {
/* columns rows colors chars-per-pixel */
"32 32 153 2 ",
"   c #FF9933",
".  c #FF9E3A",
"X  c #FFA13E",
"o  c #FFA542",
"O  c #FFA946",
"+  c #FFAE4C",
"@  c #FFB04F",
"#  c #FFB554",
"$  c #FFB758",
"%  c #FFBB5D",
"&  c #FFBF62",
"*  c #FFC265",
"=  c #FFC56C",
"-  c #FFC770",
";  c #FFC974",
":  c #FFCE7D",
">  c #3366FF",
",  c #326DFF",
"<  c #3969FF",
"1  c #2E7BFF",
"2  c #3F73FF",
"3  c #426EFF",
"4  c #4978FF",
"5  c #5175FF",
"6  c #5578FF",
"7  c #5B7BFF",
"8  c #2A8AFF",
"9  c #318BFF",
"0  c #388DFF",
"q  c #2699FF",
"w  c #309AFF",
"e  c #1DB5FC",
"r  c #1ABBF9",
"t  c #23A1FF",
"y  c #21AAFF",
"u  c #4585FF",
"i  c #5B88FF",
"p  c #4490FF",
"a  c #5194FF",
"s  c #5A97FF",
"d  c #6582FF",
"f  c #6D8DFF",
"g  c #758DFF",
"h  c #6A91FF",
"j  c #679DFF",
"k  c #7391FF",
"l  c #7A9EFF",
"z  c #4BB0FF",
"x  c #50B1FF",
"c  c #7FA2FF",
"v  c #61B5FF",
"b  c #75BAFF",
"n  c #17EED4",
"m  c #0DF2D5",
"M  c #16F2D5",
"N  c #1DF2D6",
"B  c #27EED5",
"V  c #38EBD8",
"C  c #2AF2D6",
"Z  c #32F3D7",
"A  c #3CF3D8",
"S  c #12CEEF",
"D  c #0FD5EC",
"F  c #11D4ED",
"G  c #13CCF0",
"H  c #29D4EE",
"J  c #27CFF0",
"K  c #39CAF4",
"L  c #2FD1F0",
"P  c #4CEAD8",
"I  c #54EBD7",
"U  c #55E4DB",
"Y  c #54E9DB",
"T  c #5CEED9",
"R  c #43F3D8",
"E  c #4CF3D9",
"W  c #53F4DA",
"Q  c #5BF4DB",
"!  c #65EBD8",
"~  c #6BE9DB",
"^  c #75E9DE",
"/  c #64F4DD",
"(  c #69F4DD",
")  c #79F3DF",
"_  c #43D0F1",
"`  c #60D8EF",
"'  c #6CE7E2",
"]  c #FFD080",
"[  c #FBD595",
"{  c #F9D69C",
"}  c #DEE1B8",
"|  c #8399FF",
" . c #8D9FFF",
".. c #82A2FF",
"X. c #8CA4FF",
"o. c #95A5FF",
"O. c #85B5FF",
"+. c #9BB4FF",
"@. c #9ABBFF",
"#. c #A3B3FF",
"$. c #A9B6FF",
"%. c #A5B8FF",
"&. c #ACBEFF",
"*. c #8CC3FF",
"=. c #94C6FF",
"-. c #8BD7F7",
";. c #9BD2FD",
":. c #A4C6FF",
">. c #A3CCFF",
",. c #AACAFF",
"<. c #BCC6FF",
"1. c #B1CDFF",
"2. c #B8CDFF",
"3. c #B4D1FF",
"4. c #BBD5FF",
"5. c #BEDAFF",
"6. c #86F3E1",
"7. c #98F6E5",
"8. c #95E1F3",
"9. c #9CE3F3",
"0. c #ACF9EA",
"q. c #BEF5E4",
"w. c #B5F9EB",
"e. c #BBF9EC",
"r. c #AEE7F7",
"t. c #A7E0F8",
"y. c #D7EACE",
"u. c #DBEACE",
"i. c #D3EED5",
"p. c #DFEBD1",
"a. c #DEEED8",
"s. c #CBF1DD",
"d. c #EAE5C4",
"f. c #E1EBD1",
"g. c #C0CDFF",
"h. c #C3D4FF",
"j. c #CBD5FF",
"k. c #C4DBFF",
"l. c #CBDDFF",
"z. c #D2DBFF",
"x. c #C1FAEE",
"c. c #D2F3E1",
"v. c #CEE1FF",
"b. c #D4E4FF",
"n. c #DAE6FF",
"m. c #D3E9FD",
"M. c #DDEAFF",
"N. c #CFFCF3",
"B. c #E1E7FF",
"V. c #E3ECFF",
"C. c #E7F1FE",
"Z. c #EDF2FF",
"A. c #F2F5FF",
/* pixels */
"> > > > > > > > > > > > > > > > > > > > > > > > > > > > > > > > ",
"> > > > > > > > > > > > > > > > > > > > > > > > > > > > > > > > ",
"> > > > > > > > > > > > > > > > > > > > > > > > > > > > > > > > ",
"> > > > > > > > > > > > > > > > > > > > > > > > > > > > > > > > ",
"> > > > > > > > > > > > > > > > > > > > > > > > > > > > > > > > ",
"> > > > > > > > > > > > > > > > > > > > > > > > > > > > > > > > ",
"> > > > > > > > > > > > > > > > > > > > > > > > > > > > > > > > ",
"> > > > > > > > 3 7 > > > > > > > > > > > > > 5  .g < > > > > > ",
"> 5 > > > > < g #.%.X.2 < < 7 o.g g > > > > <  .k l g > > > > > ",
"+.&.X.6 > , > > > > < 7 $.l.V.n.n.V.j.#.d > > > > < | #.j.<.g.d ",
", , , , , , , , , , 4 f X...c ..l h i 2 , , , 2 o.j.j.b.1.h.2.g.",
"1 i h.<.B.V.Z...1 1 1 1 1 1 1 1 1 1 1 1 1 1 1 1 1 1 1 u 1 1 1 1 ",
"a z.Z.Z.Z.C.Z.Z.2.8 8 8 8 8 8 8 0 9 9 8 s @.j p 8 8 8 8 8 8 9 +.",
"n.Z.V.v.V.M.v.M.Z.O.q q q q w b.Z.M.V.M.A.Z.Z.b.=.q q q q q h.Z.",
"M.Z.M.n.v.k.v.l.V.V.x b n.=.>.A.Z.Z.V.b.Z.M.Z.Z.A.=.y v z *.A.Z.",
"Z.b.v.k.3.3.k.M.M.A.;.V.V.Z.Z.M.M.l.b.l.b.n.M.V.Z.5.5.C.C.M.Z.V.",
"Z.m.l.4.4.4.4.4.n.Z.b.M.M.l.b.l.4.k.3.4.k.l.4.v.M.V.V.n.Z.Z.v.3.",
"4.,.,.,.:.=.,.:.,.h.4.,.,.,.:.,.:.:.:.,.:.:.>.:.1.2.,.1.1.4.3.:.",
"t t y t q t t t t t t t t t t t t t q t q t t t t q q t t t t t ",
"r r r r r r r r e e e e e e r r e e r e e e e e r G G e r e e e ",
"t.t.-.L S D D H H F F S G K -.r.9.8.` H S S G J 8.-.9._ F S G _ ",
"/ B ) 7.6.Y Y T T E V ! ~ 6.~ I n T ! ^ ~ Y Y 6.) A U ^ ' U P I ",
"( / / / / R B n m N C R R E R R E W W Q A R R E / A E Z C E M R ",
"} d.p.i.x.0.7.0.w.w.w.s.c.a.f.s.c.x.N.e.e.c.y.p.u.u.s.q.e.e.q.s.",
"] ] ] ] : [ { { { [ : : ] ] : ] : : : : : : : : : : : : : : : : ",
"] ] ] ] ] ] ] ] : : ] : : : ; : ] : : : ] : : : : : ; : : : ] ] ",
"= = = = ; ; - = - * = * * * * * - ; ; : : ; = * * * * * * = ; ; ",
"# @ # + + + # # $ % % % * $ $ $ % % % % % % % * * * & & & % % $ ",
"+ + + + + @ + + + + + + + + O + @ @ @ + @ @ @ @ @ # + @ @ @ @ @ ",
"o o O O O O O O X X X X X X X X X O X + O O O X X X X X o O O X ",
"          . . . X X   X X     X X X X X X X X X X X X   X X X X ",
"                                                                "
};
