/* XPM */
static char *c8390577cb5d4af58f3ab56e0307ac97ioo0gtpAr4vpQka7[] = {
/* columns rows colors chars-per-pixel */
"32 32 35 1 ",
"  c #FFB851",
". c #FFC147",
"X c #FFD72E",
"o c #FFED14",
"O c yellow",
"+ c #FFF60A",
"@ c #FFE41E",
"# c #FFCE38",
"$ c #FFCA3D",
"% c #FFE024",
"& c #FFBC4C",
"* c #FFC542",
"= c #FFFB05",
"- c #FFDB29",
"; c #FFD332",
": c #FFF20F",
"> c #FFDC28",
", c #CFCF00",
"< c #202000",
"1 c #4F4F00",
"2 c black",
"3 c #FFE023",
"4 c #1F1F00",
"5 c #AFAF00",
"6 c #808000",
"7 c #404000",
"8 c #505000",
"9 c #DFDF00",
"0 c #FFD72D",
"q c #BFBF00",
"w c #0F0F00",
"e c #9F9F00",
"r c #EFEF00",
"t c #2F2F00",
"y c #5F5F00",
/* pixels */
"                                ",
"           .XooOO+o@#           ",
"         $+OOOOOOOOOOO%&        ",
"       *oOOOOOOOOOOOOOO=-       ",
"      $=OOOOOOOOOOOOOOOOO@&     ",
"     ;OOOOOOOOOOOOOOOOOOOO:&    ",
"    *=OOOOOOOOOOOOOOOOOOOOO@    ",
"   &=OOOOOOOOOOOOOOOOOOOOOOO>   ",
"   >OOOOO,<<,OOOOOO,<<,OOOOO=&  ",
"  .=OOOOO1221OOOOOO1221OOOOOO3  ",
"  >OOOOOO2222OOOOOO2222OOOOOOO  ",
"  :OOOOOO2222OOOOOO2222OOOOOOO# ",
" .OOOOOOO1221OOOOOO1221OOOOOOO@ ",
" $OOOOOOO,44,OOOOOO,44,OOOOOOOo ",
" ;OOOOOOOOOOOOOOOOOOOOOOOOOOOO+ ",
" >OOOOOOOOOOOOOOOOOOOOOOOOOOOOO ",
" >OOOOOOOOOOOOOOOOOOOOOOOOOOOOO ",
" $OOOOOOOOOOOOOOOOOOOOOOOOOOOOo ",
" $OOOOOOOOOOOOOOOOOOOOOOOOOOOOo ",
"  =OOOOOO5666677777786669OOOOO0 ",
"  @OOOOO9222222222222222qOOOOO. ",
"  ;OOOOOOw2222222222222wOOOOO:  ",
"   oOOOOOe2222222222222eOOOOO$  ",
"   $OOOOOO5w222222222w5OOOOOo   ",
"    @OOOOOOre1t222tyerOOOOO=*   ",
"     oOOOOOOOOOOOOOOOOOOOOO$    ",
"     &oOOOOOOOOOOOOOOOOOO=;     ",
"       @OOOOOOOOOOOOOOOO=*      ",
"        $oOOOOOOOOOOOO=>&       ",
"          ;@=OOOOOOO:>.         ",
"             $$>>;$.            ",
"                                "
};
