/* XPM */
static char *_087ea3e0a294dceabd3205c20dc8d93zn2H3pnd9aRzqmKH[] = {
/* columns rows colors chars-per-pixel */
"32 32 22 1 ",
"  c black",
". c #909090",
"X c gray75",
"o c gray62",
"O c gray50",
"+ c #5F5F5F",
"@ c #101010",
"# c #C0C0C0",
"$ c white",
"% c gray87",
"& c #CECECE",
"* c gray25",
"= c #505050",
"- c #808080",
"; c gray88",
": c #AFAFAF",
"> c gray19",
", c #A0A0A0",
"< c #3F3F3F",
"1 c #6F6F6F",
"2 c gray81",
"3 c #606060",
/* pixels */
"                                ",
"                                ",
"        .XXXXXXXXXoO+@          ",
"        #$$$$$$$$$$$$%+         ",
"        #$$$$$$$$$$$$$$&@       ",
"        #$$$*****=-;$$$$.       ",
"        #$$$        -$$$$=      ",
"        #$$$         :$$$:      ",
"        #$$$         >$$$&      ",
"        #$$$          $$$$      ",
"        #$$$          ;$$$@     ",
"        #$$$          $$$$      ",
"        #$$$         >$$$#      ",
"        #$$$         #$$$,      ",
"        #$$$       @O$$$$*      ",
"        #$$$<<<<<1O%$$$$.       ",
"        #$$$$$$$$$$$$$$2@       ",
"        #$$$$$$$$$$$$;3         ",
"        #$$$######--*           ",
"        #$$$                    ",
"        #$$$                    ",
"        #$$$                    ",
"        #$$$                    ",
"        #$$$                    ",
"        #$$$                    ",
"        #$$$                    ",
"        #$$$                    ",
"        #$$$                    ",
"        #$$$                    ",
"        #$$$                    ",
"                                ",
"                                "
};
