/* XPM */
static char *_b8af38b09284b2e8a70f0ecf31943fcdqrId9Y0B7GpFxNT[] = {
/* columns rows colors chars-per-pixel */
"32 32 80 1 ",
"  c #FFB851",
". c #FF822D",
"X c #FF822E",
"o c #E54F14",
"O c #DD2C00",
"+ c #E53000",
"@ c #FF3D00",
"# c #EA3200",
"$ c #F28332",
"% c #EE7228",
"& c #F75714",
"* c #A78650",
"= c #696350",
"- c #C09550",
"; c #FF6319",
": c #68634F",
"> c #37474F",
", c #FF5B14",
"< c #9B7F50",
"1 c #595C53",
"2 c #BF9C60",
"3 c #7B7157",
"4 c #445358",
"5 c #697775",
"6 c #72736E",
"7 c #505F62",
"8 c #FF993D",
"9 c #756A50",
"0 c #817150",
"q c #FF8A32",
"w c #E6AA51",
"e c #F2B151",
"r c #FF7A28",
"t c #F33C02",
"y c #872F16",
"u c #E73A04",
"i c #7A2E18",
"p c #3E2723",
"a c #FFB04C",
"s c #FF9A3D",
"d c #FF6B1E",
"f c #6E2C1A",
"g c #FF4505",
"h c #F4953F",
"j c #F39440",
"k c #D5A65B",
"l c #EA430F",
"z c #DB3907",
"x c #CE3709",
"c c #D2A45C",
"v c #9F5844",
"b c #5F6B72",
"n c #F54007",
"m c #923114",
"M c #6E2D1A",
"N c #546E7A",
"B c #BF4F2D",
"V c #9E3212",
"C c #CD9C50",
"Z c #CE9C50",
"A c #AE8E58",
"S c #4F6772",
"D c #69686B",
"F c #746563",
"G c #506975",
"H c #AC8D59",
"J c #394952",
"K c #D5491E",
"L c #394951",
"P c #B48D50",
"I c #945C4C",
"U c #2D3B42",
"Y c #2C3A41",
"T c #E03203",
"R c #E43101",
"E c #425761",
"W c #425760",
"Q c #BF3B18",
"! c #CE3F14",
"~ c #4F554F",
/* pixels */
"                                ",
"               .X               ",
"         oOOOO+@@+OOOOO         ",
"         oOOOO#@@#OOOOO         ",
"         $%%%%&@@&%%%%%         ",
"       *===-  ;@@;  -===*       ",
"       :>>>:  ,@@,  <>>>:       ",
"       :>>>122@@@@223>>>:       ",
"       :>>>456@@@@657>>>:       ",
"       :>>>: 8@@@@8 <>>>:       ",
"       9>>>0 q@@@@q <>>>9       ",
"       w*<*e r@@@@r e*<*w       ",
"             ;@@@@;             ",
"             ,tyyu,             ",
"             @ippi@             ",
"          asd@fppp@dsa          ",
"         ag@@@fppp@@@ga         ",
"         h@@@@fppp@@@@j         ",
"         kl@@@zxxx@@@lc         ",
"         kv@@@@@@@@@@vc         ",
"         kbn@@mMMi@@nbc         ",
"         kNB@@xVVx@@BNc         ",
"       CZASD@@@@@@@@FGHZZ       ",
"      C>>>JNK@@@@@@KNL>>>P      ",
"      C>>>>NI@@@@@@IN>>>><      ",
"      C>>>>UYT++++RYY>>>><      ",
"      C>>>>EWQOOOOQWW>>>><      ",
"      C>>!@@@@@@@@@@@@@>><      ",
"      w~>!@@@@@@@@@@@@@>~w      ",
"         ,@@@@@@@@@@@@@         ",
"         ,@@@@@@@@@@@@@         ",
"         qrrrrrrrrrrrrr         "
};
