/* XPM */
static char *dee0e6394446412883582b5e192daf996wbjHWZdSf1WE9k1[] = {
/* columns rows colors chars-per-pixel */
"32 32 108 2 ",
"   c #FFB851",
".  c #CD9C50",
"X  c #CE9C50",
"o  c #D9A351",
"O  c #8E7850",
"+  c #37474F",
"@  c #C09550",
"#  c #444E4F",
"$  c #68634F",
"%  c #9B7F50",
"&  c #FBA647",
"*  c #EE7229",
"=  c #CF8E46",
"-  c #504645",
";  c #9B4228",
":  c #CD5E28",
">  c #FF7B29",
",  c #F6953D",
"<  c #DD2C00",
"1  c #D1803C",
"2  c #FFA142",
"3  c #FF6419",
"4  c #E05621",
"5  c #A76B4D",
"6  c #7F8070",
"7  c #4D5959",
"8  c #69443B",
"9  c #FF3D00",
"0  c #E48A3D",
"q  c #434E4F",
"w  c #5C5C4F",
"e  c #FF6B1E",
"r  c #E9430F",
"t  c #A9563D",
"y  c #5F6B72",
"u  c #506975",
"i  c #475D67",
"p  c #41545E",
"a  c #324149",
"s  c #74534B",
"d  c #7E8070",
"f  c #A99366",
"g  c #FF540F",
"h  c #BF4F2E",
"j  c #7F625B",
"k  c #49606B",
"l  c #263238",
"z  c #7E615B",
"x  c #FF993D",
"c  c #FF9238",
"v  c #DD3F10",
"b  c #9D3216",
"n  c #8E5B4E",
"m  c #F87F2E",
"M  c #CE562A",
"N  c #E9531A",
"B  c #FF4505",
"V  c #F33C02",
"C  c #AB330F",
"Z  c #9F3211",
"A  c #E73A04",
"S  c #F63900",
"D  c #E53000",
"F  c #FB631B",
"G  c #FD3C00",
"H  c #622B1D",
"J  c #3E2723",
"K  c #CE3709",
"L  c #F9792A",
"P  c #F43800",
"I  c #F73900",
"U  c #862F16",
"Y  c #FFB04C",
"T  c #AE6746",
"R  c #D46833",
"E  c #FF6319",
"W  c #FF5B14",
"Q  c #DB3907",
"!  c #E23506",
"~  c #FF8A32",
"^  c #F54007",
"/  c #B64829",
"(  c #55322B",
")  c #6C7268",
"_  c #8D8060",
"`  c #E6AA51",
"'  c #EA430F",
"]  c #945C4C",
"[  c #DA853D",
"{  c #FF7223",
"}  c #BF4F2D",
"|  c #546E7A",
" . c #4F6772",
".. c #465B65",
"X. c #435761",
"o. c #3A4B54",
"O. c #74534C",
"+. c #FF7A28",
"@. c #C96A3A",
"#. c #8E7862",
"$. c #495557",
"%. c #FDAF4C",
"&. c #CE954B",
"*. c #44464A",
"=. c #B46E3C",
"-. c #4F554F",
";. c #F2B151",
":. c #B48D50",
/* pixels */
"                                                                ",
"                                                                ",
"                                                                ",
"                                                                ",
"                                                                ",
"                                                                ",
"                                                                ",
"          . X X X X o                       O + + + + + @       ",
"        o + + + + + #                       $ + + + + + %       ",
"  & * * = + + + + + +                       $ + + + - ; : > >   ",
"  , < < 1 + + + + + +         2 3 4 5 6 6 6 7 + + + 8 9 9 9 9   ",
"  , < < 0 q + + + + w         e 9 9 9 r t y u i p a s 9 9 9 9   ",
"  , < < ,     d f             g 9 9 9 9 9 9 h j k l z 9 9 9 9   ",
"  , < < ,     d f     x c > e 9 9 9 9 9 9 9 9 9 v b n 9 9 9 9   ",
"  , < < m c > M N B 9 9 9 V C Z Z Z 9 A C 9 9 9 S < D 9 9 9 9   ",
"  F G 9 9 9 9 9 9 9 9 9 9 H J J J J 9 K J 9 9 9 S < D 9 9 9 9   ",
"  9 9 9 9 9 9 9 9 9 9 9 9 J J J J J 9 K J 9 9 9 S < D 9 9 9 9   ",
"  L P I 9 9 9 9 9 9 9 9 9 U J J J J 9 K J 9 9 9 S < D 9 9 9 9   ",
"  , < < , Y x T R E W 9 9 9 K K K K 9 V Q 9 9 9 S < ! 9 9 9 9   ",
"  , < < ,     d f       Y x ~ 9 9 9 9 9 9 9 9 ^ / ( z 9 9 9 9   ",
"  , < < , o X ) _ X `         W 9 9 9 9 9 ' ] y k l z 9 9 9 9   ",
"  , < < [ + + + + + #         { 9 9 9 } j |  ...X.o.O.9 9 9 9   ",
"  , < < 1 + + + + + +         Y +.@.#.d d d $.+ + + 8 9 9 9 9   ",
"  %., , &.+ + + + + +                       $ + + + *.8 =.x x   ",
"        ` + + + + + -.                      $ + + + + + %       ",
"          ;.. . . .                         :.$ $ $ $ $ o       ",
"                                                                ",
"                                                                ",
"                                                                ",
"                                                                ",
"                                                                ",
"                                                                "
};
