/* XPM */
static char *result[] = {
/* columns rows colors chars-per-pixel */
"32 32 14 1 ",
"  c black",
". c gray4",
"X c #191919",
"o c gray15",
"O c gray20",
"+ c #434343",
"@ c gray30",
"# c gray32",
"$ c #6D6D6D",
"% c #7E7E7E",
"& c #FFE879",
"* c gray70",
"= c gray80",
"- c white",
/* pixels */
"++++++++++++++++X$++++++++++++++",
"++++++++++++++++X$++++++++++++++",
"++++++++++++++++.$++++++++++++++",
"+++++++++++++++.........++++++++",
"X....X.XXXXXXX.%%%%@@@@@.XXX....",
"$$$$$$$$$$$$$.=***%%@@@@&.$$$$$$",
"##########...=*****%@@@@&.######",
"#########.@OO=*****%@@O .$######",
"#########.@OO=*****%@@@ X$######",
"#########.@OO=*****%@@@ oO######",
"XXXXXXXXX....OOOOOO%@@@ oXXXXXXX",
"$$$$$OXO$.%%%%%%@@@O@@@ $$$$$$$$",
"++++++X$.=*****%%@@@O@@ ++++++++",
"++++++.$.=******%@@@O@@ ++++++++",
"++++++X$.=******%@@@O@@ ++++++++",
"++++++X$.=******%@@@O@@ ++++++++",
"+++++OXO.=******%@@@O@@ ++++++++",
"XXXXXXXX.=******%@@@O@@ XXXXXXXX",
"$$$$$$$$.=******%@@@O@@O..$$$$$$",
"########.=******%@@@O@@OOO.#####",
"########.-=*****%@@@O@@OOO.#####",
"#########.-=====@@@O@@@OOO.#####",
"##########...OOOOOO%@@@OOO.#####",
"XXXXXXXXXXXX.=*****%@@@OOO.XXXXX",
"$$$$$OXO$....=*****%@@@@@@.$$$$$",
"######X$.&O=*=*****%@@@ ..######",
"######X$.-O=*=*****%@@.#########",
"######X$.-O=*-=****%@@.#########",
"#####OXO#.O-==-====@@.##########",
"XXXXXXXXXX...........XXXXXXXXXXX",
"$$$$$$$$$$$$$$$OXO$$$$$$$$$$$$$$",
"++++++++++++++++X$++++++++++++++"
};
