/* XPM */
static char *_fb1f1ec2a264d13a1f7fe2c4b9ebdfcfdONhYGyw6gjygDh[] = {
/* columns rows colors chars-per-pixel */
"32 32 113 2 ",
"   c #FFB851",
".  c #C09550",
"X  c #37474F",
"o  c #8E7850",
"O  c #D9A351",
"+  c #CE9C50",
"@  c #9B7F50",
"#  c #68634F",
"$  c #434E4F",
"%  c #FF7A28",
"&  c #FF7B29",
"*  c #CD5E28",
"=  c #9B4228",
"-  c #69443B",
";  c #CE964C",
":  c #EE7229",
">  c #F89D41",
",  c #FF3D00",
"<  c #9B4227",
"1  c #47565B",
"2  c #6A7875",
"3  c #996550",
"4  c #DC5422",
"5  c #FF5C14",
"6  c #FFA142",
"7  c #CF9148",
"8  c #DD2C00",
"9  c #F18031",
"0  c #A24B32",
"q  c #324149",
"w  c #40545D",
"e  c #475D67",
"r  c #506975",
"t  c #5F6B72",
"y  c #A9563D",
"u  c #E9430F",
"i  c #FF6319",
"p  c #5C5C4F",
"a  c #E59D49",
"s  c #AA553D",
"d  c #263238",
"f  c #485F69",
"g  c #7F625B",
"h  c #BF4F2E",
"j  c #FF540F",
"k  c #AC9465",
"l  c #7C7F70",
"z  c #FCAA49",
"x  c #B55235",
"c  c #9D3216",
"v  c #DD3F10",
"b  c #FF6B1E",
"n  c #FF9238",
"m  c #FF9A3D",
"M  c #EE3400",
"N  c #F63900",
"B  c #AA330F",
"V  c #E73A04",
"C  c #B6350D",
"Z  c #9F3211",
"A  c #AB330F",
"S  c #F33C02",
"D  c #FF4505",
"F  c #EA5319",
"G  c #CE562A",
"H  c #FD8F37",
"J  c #3E2723",
"K  c #CE3709",
"L  c #6E2C1A",
"P  c #562A1F",
"I  c #FD3C00",
"U  c #F95A16",
"Y  c #7A2E18",
"T  c #F73900",
"R  c #F43800",
"E  c #F56B22",
"W  c #EA3704",
"Q  c #DB3907",
"!  c #FF5B14",
"~  c #D66832",
"^  c #AD6646",
"/  c #FF993D",
"(  c #FFB04C",
")  c #55322B",
"_  c #B54828",
"`  c #F54007",
"'  c #FF8A32",
"]  c #945C4C",
"[  c #DF4616",
"{  c #E6AA51",
"}  c #8F8160",
"|  c #6B7168",
" . c #A34C32",
".. c #3A4B54",
"X. c #435761",
"o. c #465B65",
"O. c #4D646F",
"+. c #546E7A",
"@. c #BF4F2D",
"#. c #D99749",
"$. c #4D5756",
"%. c #92896B",
"&. c #A07F5E",
"*. c #D06E39",
"=. c #FF7223",
"-. c #B46E3C",
";. c #504645",
":. c #CD994E",
">. c #F6943C",
",. c #4F554F",
"<. c #B48D50",
"1. c #CD9C50",
"2. c #F2B151",
/* pixels */
"                                                                ",
"                                                                ",
"                                                                ",
"                                                                ",
"                                                                ",
"                                                                ",
"                                                                ",
"      . X X X X X o                       O + + + + +           ",
"      @ X X X X X #                       $ X X X X X O         ",
"  % & * = - X X X #                       X X X X X X ; : : >   ",
"  , , , , < X X X 1 2 2 2 3 4 5 6         X X X X X X 7 8 8 9   ",
"  , , , , 0 q w e r t y u , , , i         p X X X X $ a 8 8 9   ",
"  , , , , s d f g h , , , , , , j             k l     z 8 8 9   ",
"  , , , , x c v , , , , , , , , , b & n m     k l     z 8 8 9   ",
"  , , , , M 8 N , , , B V , C Z Z A S , , , D F G & n H 8 8 9   ",
"  , , , , M 8 N , , , J K , L J J J P , , , , , , , , , , I U   ",
"  , , , , M 8 N , , , J K , L J J J J S , , , , , , , , , , ,   ",
"  , , , , M 8 N , , , J K , L J J J Y , , , , , , , , , T R E   ",
"  , , , , W 8 N , , , Q S , Q K K K , , , ! i ~ ^ / ( z 8 8 9   ",
"  , , , , s ) _ ` , , , , , , , , ' / (       k l     z 8 8 9   ",
"  , , , , s d f t ] [ , , , , , !         { + } | + O z 8 8 9   ",
"  , , , ,  ...X.o.O.+.g @., , , b         $ X X X X X #.8 8 9   ",
"  , , , , < X X X $.%.%.%.&.*.=.(         X X X X X X 7 8 8 9   ",
"  / / -.- ;.X X X #                       X X X X X X :.>.>.z   ",
"      @ X X X X X #                       ,.X X X X X {         ",
"      O # # # # # <.                        1.1.1.1.2.          ",
"                                                                ",
"                                                                ",
"                                                                ",
"                                                                ",
"                                                                ",
"                                                                "
};
