/* XPM */
static char *_d6b225f76a84b5993741e571111dd5fnrue4JjUrj8EUxG8[] = {
/* columns rows colors chars-per-pixel */
"32 32 75 1 ",
"  c #FFB851",
". c #FF7223",
"X c #FF5C14",
"o c #FF5B14",
"O c #FF3D00",
"+ c #E6AA51",
"@ c #CE9C50",
"# c #F35414",
"$ c #D9A351",
"% c #37474F",
"& c #CE3F14",
"* c #CD9C50",
"= c #A84122",
"- c #D5491E",
"; c #DF4415",
": c #F73900",
"> c #9B7F50",
", c #374951",
"< c #CE340B",
"1 c #DD2C00",
"2 c #44484C",
"3 c #E33202",
"4 c #E53000",
"5 c #546E7A",
"6 c #9F5844",
"7 c #3B4C54",
"8 c #EA430F",
"9 c #E9430F",
"0 c #AD8E58",
"q c #7F625B",
"w c #8A5F54",
"e c #AB8D59",
"r c #D5A65B",
"t c #CA4C26",
"y c #B6350D",
"u c #9F3211",
"i c #D2A45C",
"p c #69686B",
"a c #923114",
"s c #6E2C1A",
"d c #AA553D",
"f c #B55235",
"g c #D89F55",
"h c #F44008",
"j c #D59E56",
"k c #FB983D",
"l c #3E2723",
"z c #FFB04C",
"x c #FF8A32",
"c c #492821",
"v c #FF4405",
"b c #862F16",
"n c #AA330F",
"m c #FF6B1E",
"M c #9B8050",
"N c #FF7A28",
"B c #68634F",
"V c #756A50",
"C c #FF9138",
"Z c #646150",
"A c #ECB055",
"S c #F19340",
"D c #917B52",
"F c #3E515A",
"G c #455A64",
"H c #626051",
"J c #E7AE57",
"K c #FE4405",
"L c #8F7A53",
"P c #EC6923",
"I c #E54F14",
"U c #F2460A",
"Y c #E83100",
"T c #EA4C10",
"R c #FFA142",
/* pixels */
"                                ",
"         .XXXXXXXXXXXXX         ",
"         oOOOOOOOOOOOOO         ",
"       +@#OOOOOOOOOOOOO@+       ",
"      $%%&OOOOOOOOOOOOO%%*      ",
"      *%%=&--;::::;--&&%%>      ",
"      *%%%%,,<1111<,,%%%%>      ",
"      *%%%%,23444442,%%%%>      ",
"      *%%%%56OOOOOO65%%%%>      ",
"      $%%%758OOOOOO957%%%*      ",
"       +*05qOOOOOOOOw5e*+       ",
"         r5tOOyuuyOOt5i         ",
"         rpOOOasssOOOpi         ",
"         rdOOOOOOOOOOfi         ",
"         ghOOOyuuuOOOhj         ",
"         kOOOOslllOOOOk         ",
"          oOOOslllOOOo          ",
"           zxOsllcOxz           ",
"             vallbv             ",
"             oOnnOo             ",
"             mOOOOm             ",
"       *MMM$ NOOOON $MMM*       ",
"       B%%%V COOOOC >%%%B       ",
"       B%%%ZASOOOOSAD%%%B       ",
"       B%%%F55OOOO55G%%%B       ",
"       B%%%HJJKOOKJJL%%%B       ",
"       B%%%V  oOOo  >%%%B       ",
"       *VBV$  mOOm  $VBV*       ",
"         PIIIIUOOUIIIII         ",
"         I1111YOOY11111         ",
"         PIIIITOOTIIIII         ",
"               RR               "
};
