/* XPM */
static char *_ab6fba93c1b4399ed80acecaa96fbc2elIUqCTecqoEWDPJ[] = {
/* columns rows colors chars-per-pixel */
"32 32 27 1 ",
"  c black",
". c #101010",
"X c #3F3F3F",
"o c gray19",
"O c gray25",
"+ c #AFAFAF",
"@ c white",
"# c #CECECE",
"$ c gray62",
"% c #5F5F5F",
"& c gray75",
"* c #C0C0C0",
"= c #202020",
"- c #EEEEEE",
"; c gray88",
": c gray94",
"> c gray81",
", c #606060",
"< c gray44",
"1 c #808080",
"2 c gray50",
"3 c #8E8E8E",
"4 c gray31",
"5 c gray87",
"6 c #A0A0A0",
"7 c #505050",
"8 c #909090",
/* pixels */
"                                ",
"              .XXXXo            ",
"           O+@@@@@@@@#$%.       ",
"         o&@@@@@@@@@@@@@*       ",
"        =-@@@@@;***:@@@@*       ",
"        >@@@;,      =<*@*       ",
"       <@@@>.          =<       ",
"       +@@@.                    ",
"       ;@@;                     ",
"       @@@*                     ",
"       :@@-                     ",
"       *@@@<                    ",
"       1@@@@2.                  ",
"       .;@@@@@#34=              ",
"        o:@@@@@@@@534           ",
"         .6@@@@@@@@@@-2         ",
"           o<>@@@@@@@@@#=       ",
"              .71*@@@@@@5.      ",
"                  .7;@@@@8      ",
"                     6@@@@.     ",
"                     .;@@@O     ",
"                      8@@@<     ",
"                      1@@@1     ",
"                      8@@@7     ",
"                      >@@@=     ",
"       ;%            8@@@:      ",
"       @@53o       o$@@@@,      ",
"       @@@@@-&$23&#@@@@@8       ",
"       :@@@@@@@@@@@@@@@8        ",
"        O8>@@@@@@@@@:1=         ",
"           .O,1117O=            ",
"                                "
};
