/* XPM */
static char *_e621bfabf594ff5ac64d9d75d2c2765rbCz9FBbcs6t2L8f[] = {
/* columns rows colors chars-per-pixel */
"32 32 8 1 ",
"  c black",
". c #909090",
"X c gray75",
"o c #C0C0C0",
"O c white",
"+ c gray19",
"@ c gray25",
"# c gray81",
/* pixels */
"                                ",
"                                ",
"    .XXXXXXXXXXXXXXXXXXXXXX.    ",
"    oOOOOOOOOOOOOOOOOOOOOOOo    ",
"    oOOOOOOOOOOOOOOOOOOOOOOo    ",
"    +@@@@@@@@@#OOO@@@@@@@@@+    ",
"              oOOO              ",
"              oOOO              ",
"              oOOO              ",
"              oOOO              ",
"              oOOO              ",
"              oOOO              ",
"              oOOO              ",
"              oOOO              ",
"              oOOO              ",
"              oOOO              ",
"              oOOO              ",
"              oOOO              ",
"              oOOO              ",
"              oOOO              ",
"              oOOO              ",
"              oOOO              ",
"              oOOO              ",
"              oOOO              ",
"              oOOO              ",
"              oOOO              ",
"              oOOO              ",
"              oOOO              ",
"              oOOO              ",
"              oOOO              ",
"                                ",
"                                "
};
