/* XPM */
static char *_411fb7b1714442dc5f41feeef0a88d2FmArpZXf3IeIVi5v[] = {
/* columns rows colors chars-per-pixel */
"32 32 5 1 ",
"  c #47704C",
". c #676767",
"X c None",
"o c #656565",
"O c #202020",
/* pixels */
"                                ",
"                                ",
"                                ",
"                                ",
"                                ",
"                                ",
"                                ",
"                                ",
"                                ",
"                                ",
"                                ",
"            ........            ",
"           .oXXXXXXo.           ",
"           .XOOOOOOX.           ",
"           .XOOOOOOX.           ",
"           .XOOOOOOX.           ",
"           .XOOOOOOX.           ",
"           .XOOOOOOX.           ",
"           .XOOOOOOX.           ",
"           .oXXXXXXo.           ",
"            ........            ",
"                                ",
"                                ",
"                                ",
"                                ",
"                                ",
"                                ",
"                                ",
"                                ",
"                                ",
"                                ",
"                                "
};
